<svg xmlns="http://www.w3.org/2000/svg" viewBox="0 0 986.43 794.01"><defs><style>.cls-1{fill:#ff585f;}.cls-2{fill:#3d9970;}</style></defs><g id="Vrstva_2" data-name="Vrstva 2"><g id="Vrstva_1-2" data-name="Vrstva 1"><path class="cls-1" d="M596.91,113.1H422.49c-5.56,0-5.56,0-6.51,5.49-3,17-13.58,28.45-30,32a49.42,49.42,0,0,1-10.26.66c-22.78.05-45.56,0-68.34,0-5.65,0-5.66,0-5.66,5.78q0,44.69,0,89.38c0,6.93-3.82,10.35-10.51,9.6a7.52,7.52,0,0,1-7.06-7.27c-.13-1.58-.08-3.18-.08-4.77V12.42c0-1.32,0-2.65,0-4,.2-4.89,3.43-8.15,8.25-8.36s8.87,3,9.3,7.82a51.29,51.29,0,0,1,0,7.54c-.16,2.75.92,3.76,3.68,3.72,7.55-.13,15.1,0,22.65,0q25,0,50.06,0c20.12,0,36.16,14.67,38,34.82.24,2.62,1.2,3.51,3.65,3.33,1.32-.09,2.65,0,4,0H769.38c14.17,0,25.73,9.36,28.09,22.67,3.16,17.78-9.28,33.06-27.34,33.1q-86.61.15-173.22,0ZM340,133.16a8.57,8.57,0,0,0,1.82.35c12.85,0,25.69.19,38.53-.06,8-.14,15.49-6.67,17.3-14.59a80.2,80.2,0,0,0,1-8.24c1.12-9.27,8.58-15.21,19.15-15.21H766.12c1.59,0,3.19.07,4.77,0A9.63,9.63,0,0,0,780,86.48c.53-5.52-2.27-10-7.58-10.81A85.92,85.92,0,0,0,759,75q-170-.06-340,0c-13.75,0-19.51-5.29-20.46-18.58-.73-10.16-6.9-18.07-17-18.87-13.29-1-26.7-.53-40.06-.61-2.3,0-2.12,1.53-1.92,3.36,1,8.57.6,16.88-4.83,24.27-.64.86-.13,3.18.61,4.33,6.24,9.6,6.31,23.69-.26,33-1.41,2-1.16,3.19,0,5.2a27.57,27.57,0,0,1,3.88,9.41C339.81,121.85,339.71,127.39,340,133.16Zm-38.29-9.9c0,10.53,0,10.53,10.08,10.28,6.16-.16,10.44-4.36,10.33-10.16-.13-7.21-4.81-10.37-15.21-10.28-5.2,0-5.2,0-5.2,8.58Zm0-38.21c.34,12.2-2.39,10.27,10.35,10.29a10.1,10.1,0,0,0,10-10.53c-.35-7.07-5-10-15.54-9.85-4.84.07-4.84.07-4.84,8.51Zm0-38.24c0,.27,0,.53,0,.8.29,11.3-2.08,9.58,9.92,9.61A10.17,10.17,0,0,0,322.13,47c-.07-6.77-5.47-10.35-15.45-10.23-4.94.05-4.94.05-4.94,8.83Z"/><path class="cls-2" d="M198.85,656.17c1-5,1.94-9.62,2.94-14.2q19.35-87.76,38.71-175.52c3.63-16.49,7.14-33,10.7-49.52.51-2.38.21-5.53,1.65-6.92s4.48-.66,6.83-1c13.2-1.67,26.41-3.36,38.87-4.95L414.13,629.56c-3.9.53-7.1,1-10.31,1.4-12.84,1.52-25.7,2.86-38.51,4.61-3.24.45-3.88-1.41-4.83-3.42-6.56-13.87-13.16-27.71-19.57-41.65-1.37-3-2.73-3.87-6.28-3.39-24.06,3.23-48.17,6.11-72.28,9-3.49.42-5.2,1.87-5.81,5.48-2.55,15.09-5.43,30.12-8,45.2-.61,3.49-1.81,4.83-5.77,5.12-13.81,1-27.57,2.79-41.34,4.25C200.89,656.22,200.36,656.17,198.85,656.17ZM320.23,546.69c-12.85-27.3-25.21-53.57-37.56-79.84l-1.39.4c-5.19,28.45-10.37,56.9-15.73,86.3Z"/><path class="cls-2" d="M958.68,448.18,913,437.11c-4.17,6.86-7.88,13.39-12,19.68q-61.24,93.68-122.61,187.29c-.88,1.35-1.56,2.83-2.28,4.16.68.52.86.76,1.1.82,14.27,3.83,28.58,7.55,42.81,11.55,2.62.74,3.52-.27,4.65-2.14,8.24-13.73,16.62-27.36,24.75-41.15,1.68-2.83,3.42-3.39,6.46-2.57,7,1.89,14.1,3.45,21.16,5.15,16.68,4,33.37,8,50,12.06,2,.5,4.63.45,4.69,3.77.07,3.16.5,6.31.75,9.47,1,12.89,2.17,25.78,3,38.69.19,2.91,1.59,3.75,4,4.35,13.58,3.36,27.13,6.83,40.7,10.24,2,.5,4,.88,6.16,1.36C977.48,615.65,967.07,532.17,958.68,448.18Zm-48,136.68c-10.77-2.61-21.52-5.33-32.32-7.78-2.92-.66-3.6-1.55-2-4.19q21.07-34.77,42.09-69.58a29.85,29.85,0,0,1,2.73-3.11c2.32,30.14,4.55,59.08,6.84,88.81C921.65,587.48,916.17,586.18,910.7,584.86Z"/><path class="cls-2" d="M427.9,555.5c8,12.62,18.65,22.34,32.39,28.34,16.55,7.22,34,8.73,51.68,6.64a89.12,89.12,0,0,0,19.61-4.39c10.14-3.64,18.28-10.07,20.46-21.34,2.66-13.76-2.62-23.16-14.13-28.16-9.59-4.16-19.8-5.52-30.08-6.47-18.93-1.75-37.46-4.82-54.19-14.77-16.25-9.66-25.25-24-28.07-42.47-2.08-13.64-2-27.21,3-40.26,8.76-22.84,26.13-36.47,49.18-42.24,32-8,63.18-4.59,92.79,10.63,3.06,1.57,4,3.32,3.59,6.84-.83,6.68-1,13.44-1.31,20.17-.37,7.53-.58,15.06-.91,22.59a46.38,46.38,0,0,1-.75,4.61c-8.83-11.74-20.24-18.47-33.52-22.24-15.43-4.37-31-6.45-47-2.93a36.39,36.39,0,0,0-6.76,2.22c-8.38,3.7-14.7,9.34-15.13,19.09-.46,10.32,3.05,19,12.59,24.3,8.45,4.71,17.71,6.87,27.16,8.21,18.7,2.66,37.47,4.89,54.78,13.35,22.8,11.13,33.51,29.64,34.1,54.63.56,23.35-6.36,43.52-24.59,59a86.76,86.76,0,0,1-39.27,19c-35.25,7.16-69.15,2.66-101.53-12.87-8.06-3.87-6.35-3.31-6-10.85.44-9.65.34-19.32.41-29,.06-7.11,0-14.23,0-21.35Z"/><path class="cls-2" d="M0,459.41c15.74-4.89,31.17-9.89,46.73-14.48a137.7,137.7,0,0,1,42.64-5.62c29.39.77,51.92,13.18,66.15,39.21C164.37,494.71,169.58,512,170,530.7c.49,23.88-8.86,43.43-26,59.51-14.92,14-33.13,21.51-52.87,25.59-3.49.73-4.26,1.81-3.33,5.27,4.93,18.36,9.58,36.79,14.46,55.16.8,3,.52,4.39-2.91,5.22-11.94,2.85-23.81,6-35.65,9.25-2.92.81-3.86.14-4.6-2.75Q41.79,621,24.29,554.18,12.52,509,.76,463.73C.49,462.72.39,461.66,0,459.41ZM77.86,481.2c-4.83,1.1-13.54,3.1-22.26,5-2.71.6-2.29,2.29-1.79,4.22Q65,533.35,76.07,576.28c.7,2.71,2.19,3.34,4.63,2.79,3.48-.79,7-1.33,10.42-2.38,15.39-4.79,26.95-13.88,32.11-29.69,3.72-11.41,2.11-22.7-1.42-33.86C115.19,492.19,102.29,481.89,77.86,481.2Z"/><path class="cls-2" d="M635.19,437c1.74-15.2,3.4-29.64,5-44.06,8.85,1.39,17.13,2.87,25.47,3.94,12.56,1.62,25.17,3,37.75,4.41q19.47,2.25,38.94,4.46,19.08,2.16,38.17,4.28a117.17,117.17,0,0,0,12.23,1.09c4.64,0,9.29-.51,14.11-.82-.41,4.19-.85,9.26-1.43,14.31-1,8.52-2.14,17-3,25.55-.26,2.47-.9,3-3.46,2.59-14-2.16-27.93-4.07-41.91-6.05-3.52-.5-7.06-.88-10.59-1.38-2.22-.32-3.46.24-3.73,2.76q-3.1,28.93-6.4,57.85c-2.25,19.66-4.68,39.31-6.92,59-2,17.57-3.85,35.15-5.78,52.73-.79,7.22-1.62,14.43-2.42,21.64-.32,2.9-1.61,4-4.75,3.54q-20.37-2.91-40.81-5.36c-2.53-.3-3.46-.87-3.13-3.59,1.67-13.76,3.18-27.53,4.71-41.3,1.69-15.22,3.3-30.44,5-45.66s3.53-30.14,5.26-45.21c1.45-12.72,2.81-25.45,4.25-38.17.69-6,1.4-12.06,2.2-18.08.72-5.34,0-6.14-5.24-6.68-11.16-1.15-22.27-2.71-33.45-3.65C648.84,434.54,642.16,433.09,635.19,437Z"/><path class="cls-1" d="M225.45,147.47q0,68.33,0,136.64c0,7.36-3.54,10.74-10.44,10.12a7.43,7.43,0,0,1-7.13-7.16c-.16-1.84-.11-3.7-.11-5.56V157.59c0-6.22-.07-6.27-6.12-6.3-1.46,0-2.92,0-4.37-.06-5.71-.26-8.53-3.15-8.54-8.7,0-5.25,3.19-8.67,8.51-8.95,2.51-.14,5.08.24,7.52-.18,1.11-.19,2.76-1.73,2.82-2.73a119.84,119.84,0,0,0,0-14.68c-.06-1-1.78-2.52-2.93-2.73-2.44-.44-5-.12-7.52-.21-5.44-.19-8.31-3.11-8.39-8.43s3-8.85,8.26-9.17a60.91,60.91,0,0,1,7.15,0c2.54.14,3.65-.89,3.62-3.43-.07-4.5-.06-9,0-13.51,0-2.54-1.16-3.59-3.64-3.53s-4.77,0-7.15-.06c-5.24-.22-8.09-3.09-8.24-8.18-.15-5.42,2.84-9,8-9.4a67.72,67.72,0,0,1,7.54,0c2.31.09,3.47-.79,3.46-3.18,0-4.63,0-9.27,0-13.9,0-2.6-1.29-3.5-3.72-3.43s-4.77.06-7.15,0c-5.15-.2-8-3.15-8.15-8.26-.12-5.29,2.72-8.84,7.69-9.28,2.76-.24,5.6.19,8.32-.22a4.27,4.27,0,0,0,2.84-2.74c.45-2.43.14-5,.22-7.52.17-5.2,3.4-8.51,8.37-8.63a8.59,8.59,0,0,1,9.21,8,32.81,32.81,0,0,1,.07,4Z"/><path class="cls-1" d="M245.92,137.15q0-63.33,0-126.68c0-3.8.56-7.16,4.11-9.23A9,9,0,0,1,263.46,7.5a16,16,0,0,1,.13,2.77q0,127.47,0,255c0,7.24-3.7,10.64-10.61,9.91A7.46,7.46,0,0,1,246,268.2a54.25,54.25,0,0,1-.12-5.56Z"/><path class="cls-1" d="M501.87,729.78l10.57-3v31.47c2.24-1.06,3.61-1.67,4.94-2.35,13.66-7,25.58,0,26.15,15.3.31,8.42-2.2,15.54-9.7,19.89s-15.43,3.49-23.05-.52c-2.51-1.32-3.47-3.13-3.44-6,.13-14.67.06-29.34.06-44,0-4.14,1.18-8.93-6.21-9C501.42,730.93,501.64,730.36,501.87,729.78Zm10.57,43.53a58.08,58.08,0,0,0,.09,7.92c.29,2.08.73,4.79,2.15,5.95,6.11,5,17,5,21.23-4.17a20.89,20.89,0,0,0-1.4-20.81c-3-4.75-8.52-6.21-14.45-4.36-7,2.17-7.62,3.08-7.62,10.71Z"/><path class="cls-1" d="M346.74,746c-6.92-9.46-15.4-12.38-26-9.69a24.24,24.24,0,0,0-18.23,19.81c-1.75,11.65.81,22,10.47,29.4,8.44,6.46,18.15,5.9,27.57,2.56,2.54-.9,4.23-4.22,6.21-6.33,2.91,4.28,1.55,8.92-3.91,10.31-9.37,2.39-18.84,2.93-28.13-.25-13-4.45-20.58-16.52-19.43-30.35,1.21-14.52,12.12-26.55,25.79-28.91,7.64-1.31,15-.4,22.31,1.6,2.92.79,4.75,2,3.77,5.47C346.73,741.31,346.91,743.19,346.74,746Z"/><path class="cls-1" d="M427.27,753.19c12.13,0,19.15,7.35,19.1,19.86,0,12.18-8.24,20.84-19.69,20.8s-19.4-8.21-19.34-20.08S415.76,753.15,427.27,753.19Zm13.81,21.13a87.31,87.31,0,0,0-2.09-9.18,12.3,12.3,0,0,0-12-8.59,12.6,12.6,0,0,0-12.38,8.71,22.75,22.75,0,0,0,.7,17.32c2.72,6.24,8.69,9,15.29,7.29S440.7,782.88,441.08,774.32Z"/><path class="cls-1" d="M378.72,753.19c12,0,19.23,7.5,19.17,19.75s-8.34,21-20,20.91c-11.47-.09-19.1-8.16-19.06-20.18S367.19,753.15,378.72,753.19Zm13.87,21.34c-.76-3.32-1.17-6.77-2.35-9.94a12.36,12.36,0,0,0-13.58-8,11.86,11.86,0,0,0-9.7,6.65c-3.66,7.48-3.06,14.89,1.25,21.85,2.92,4.72,9,6.36,14.77,4.58S392.17,782.34,392.59,774.53Z"/><path class="cls-1" d="M591.91,772.8c-.06,12.63-8.06,21.16-19.72,21.05s-19.07-8.08-18.93-20.24c.15-12.35,8.07-20.49,19.86-20.42C585.08,753.26,592,760.46,591.91,772.8Zm-5.83,1.54c0-1.32.11-2.65,0-4-.75-7.81-5.71-13.35-12.29-13.81-7.2-.51-12.86,3.42-14,11a32.68,32.68,0,0,0,1,13.94c2.38,7.88,10.47,11.07,17.88,7.63C584.83,786.25,586.39,780.69,586.08,774.34Z"/><path class="cls-1" d="M640.49,772.72c-.09,12.64-8.06,21.21-19.67,21.13s-19-7.92-19-20.17,8-20.55,19.73-20.49C633.56,753.25,640.57,760.49,640.49,772.72Zm-5.91,1c0-.69.09-2,0-3.33-.62-8.06-5.95-13.69-13-13.83-7.34-.14-12.95,4.72-13.65,12.56a34,34,0,0,0,.88,11.33c2.17,8.43,10.54,12.32,18.37,8.72C633.42,786.27,635,780.71,634.58,773.71Z"/><path class="cls-1" d="M663.91,792.48H649c.22-.83.24-1.27.35-1.3,4-.88,4.53-3.59,4.48-7.28-.21-14.82-.13-29.64-.06-44.47,0-3.74.82-7.71-4.86-7.89,1.22-2.32,8.43-5.27,9.54-4.07.74.8.88,2.37.89,3.6.05,17.08,0,34.15.06,51.23,0,3.76-1.65,8.48,5.67,8.69Z"/><path class="cls-1" d="M470.86,792.49h-16.5c.21-.82.25-1.27.35-1.29,5-.82,5.2-4.2,5.13-8.38-.22-14-.09-28-.09-42,0-6.94,0-6.94-5.63-11l10.42-3c.14,2.18.32,3.71.32,5.23q0,24,0,48C464.88,787.8,464.88,787.8,470.86,792.49Z"/><path class="cls-1" d="M666.51,770.93c8.59,7.19,13.72,17.11,24.69,20.67-2.82,1.88-9.59,2.24-11.34.42-6.2-6.45-12.23-13.06-18.65-20,6-4.86,11.67-9.36,17.59-14.1l-4.54-3.4H690l.42,1.05C680.64,757.66,674.77,765.29,666.51,770.93Z"/><path class="cls-1" d="M467,772.06l17.47-14-3.09-2.55c2.33-1.91,11.53-2.13,15.64,0-10.57,1.76-16.15,9.9-24.87,15.19,8.74,7.06,13.63,17,24.26,20.7-2,2-8.78,2.57-10.76.54C479.38,785.56,473.36,778.94,467,772.06Z"/></g></g></svg>